#Comment line ignore any data following # character 
#Hierarchical Translation and Rotation (.htr) file 
[Header]	
#Header keywords are followed by a single value 
FileType HTR		#Single word string
DataType HTRS		#Translation followed by rotation and scale data
FileVersion 1		#integer
NumSegments 84		#integer
NumFrames 2		#integer
DataFrameRate 30		#integer, data frame rate in this file
EulerRotationOrder ZYX
CalibrationUnits mm
RotationUnits Degrees
GlobalAxisofGravity Y
BoneLengthAxis Y
ScaleFactor 1.00
[SegmentNames&Hierarchy]
#CHILD	PARENT
MASTER GLOBAL
root MASTER
chest root
L_mid_tent01 root
R_mid_tent01 root
spine01 root
Bip01_Neck chest
L_humerus chest
R_humerus chest
weapon_bone chest
Bip01_Head Bip01_Neck
eye_left_bone Bip01_Head
eye_right_bone Bip01_Head
L_forearm L_humerus
L_front_hand L_forearm
L_weapon_bone L_forearm
L_front_hand01_01 L_front_hand
L_front_hand02_01 L_front_hand
L_front_hand03_01 L_front_hand
L_front_hand01_02 L_front_hand01_01
L_front_hand02_02 L_front_hand02_01
L_front_hand03_02 L_front_hand03_01
R_forearm R_humerus
R_front_hand R_forearm
R_weapon_bone R_forearm
R_front_hand01_01 R_front_hand
R_front_hand02_01 R_front_hand
R_front_hand03_01 R_front_hand
R_front_hand01_02 R_front_hand01_01
R_front_hand02_02 R_front_hand02_01
R_front_hand03_02 R_front_hand03_01
null_rope01_connect L_mid_tent01
Rope1_Seg01 null_rope01_connect
Rope1_Seg02 Rope1_Seg01
Rope1_Seg03 Rope1_Seg02
Rope1_Seg04 Rope1_Seg03
Rope1_Seg05 Rope1_Seg04
Rope1_Seg06 Rope1_Seg05
Rope1_Seg07 Rope1_Seg06
Rope1_Seg09 Rope1_Seg07
L_mid_hand01 Rope1_Seg09
L_mid_hand02 Rope1_Seg09
L_mid_hand03 Rope1_Seg09
null_rope02_connect R_mid_tent01
Rope2_Seg01 null_rope02_connect
Rope2_Seg02 Rope2_Seg01
Rope2_Seg03 Rope2_Seg02
Rope2_Seg04 Rope2_Seg03
Rope2_Seg05 Rope2_Seg04
Rope2_Seg06 Rope2_Seg05
Rope2_Seg07 Rope2_Seg06
Rope2_Seg09 Rope2_Seg07
R_mid_hand01 Rope2_Seg09
R_mid_hand02 Rope2_Seg09
R_mid_hand03 Rope2_Seg09
spine02 spine01
spine03 spine02
pelvis spine03
null_rope03_connect pelvis
null_rope04_connect pelvis
Rope3_Seg01 null_rope03_connect
Rope3_Seg02 Rope3_Seg01
Rope3_Seg03 Rope3_Seg02
Rope3_Seg04 Rope3_Seg03
Rope3_Seg05 Rope3_Seg04
Rope3_Seg06 Rope3_Seg05
Rope3_Seg07 Rope3_Seg06
Rope3_Seg08 Rope3_Seg07
Rope3_Seg09 Rope3_Seg08
R_rear_hand01 Rope3_Seg09
R_rear_hand02 Rope3_Seg09
R_rear_hand03 Rope3_Seg09
Rope4_Seg01 null_rope04_connect
Rope4_Seg02 Rope4_Seg01
Rope4_Seg03 Rope4_Seg02
Rope4_Seg04 Rope4_Seg03
Rope4_Seg05 Rope4_Seg04
Rope4_Seg06 Rope4_Seg05
Rope4_Seg07 Rope4_Seg06
Rope4_Seg08 Rope4_Seg07
Rope4_Seg09 Rope4_Seg08
L_rear_hand01 Rope4_Seg09
L_rear_hand02 Rope4_Seg09
L_rear_hand03 Rope4_Seg09
[BasePosition]
#SegmentName Tx, Ty, Tz, Rx, Ry, Rz, BoneLength
MASTER 0.000000 0.000000 0.000000 -90.000000 0.000000 0.000000 10.000000 
root 0.000000 0.000000 0.000000 0.000000 0.000000 0.000000 10.000000 
chest 0.000000 0.000000 0.000000 0.000000 0.000000 0.000000 10.000000 
L_mid_tent01 0.000000 0.000000 0.000000 0.000000 0.000000 0.000000 10.000000 
R_mid_tent01 0.000000 0.000000 0.000000 0.000000 0.000000 0.000000 10.000000 
spine01 0.000000 0.000000 0.000000 0.000000 0.000000 0.000000 10.000000 
Bip01_Neck 0.000000 0.000000 0.000000 0.000000 0.000000 0.000000 10.000000 
L_humerus 0.000000 0.000000 0.000000 0.000000 0.000000 0.000000 10.000000 
R_humerus 0.000000 0.000000 0.000000 0.000000 0.000000 0.000000 10.000000 
weapon_bone 0.000000 0.000000 0.000000 0.000000 0.000000 0.000000 10.000000 
Bip01_Head 0.000000 0.000000 0.000000 0.000000 0.000000 0.000000 10.000000 
eye_left_bone 0.000000 0.000000 0.000000 0.000000 0.000000 0.000000 10.000000 
eye_right_bone 0.000000 0.000000 0.000000 0.000000 0.000000 0.000000 10.000000 
L_forearm 0.000000 0.000000 0.000000 0.000000 0.000000 0.000000 10.000000 
L_front_hand 0.000000 0.000000 0.000000 0.000000 0.000000 0.000000 10.000000 
L_weapon_bone 0.000000 0.000000 0.000000 0.000000 0.000000 0.000000 10.000000 
L_front_hand01_01 0.000000 0.000000 0.000000 0.000000 0.000000 0.000000 10.000000 
L_front_hand02_01 0.000000 0.000000 0.000000 0.000000 0.000000 0.000000 10.000000 
L_front_hand03_01 0.000000 0.000000 0.000000 0.000000 0.000000 0.000000 10.000000 
L_front_hand01_02 0.000000 0.000000 0.000000 0.000000 0.000000 0.000000 10.000000 
L_front_hand02_02 0.000000 0.000000 0.000000 0.000000 0.000000 0.000000 10.000000 
L_front_hand03_02 0.000000 0.000000 0.000000 0.000000 0.000000 0.000000 10.000000 
R_forearm 0.000000 0.000000 0.000000 0.000000 0.000000 0.000000 10.000000 
R_front_hand 0.000000 0.000000 0.000000 0.000000 0.000000 0.000000 10.000000 
R_weapon_bone 0.000000 0.000000 0.000000 0.000000 0.000000 0.000000 10.000000 
R_front_hand01_01 0.000000 0.000000 0.000000 0.000000 0.000000 0.000000 10.000000 
R_front_hand02_01 0.000000 0.000000 0.000000 0.000000 0.000000 0.000000 10.000000 
R_front_hand03_01 0.000000 0.000000 0.000000 0.000000 0.000000 0.000000 10.000000 
R_front_hand01_02 0.000000 0.000000 0.000000 0.000000 0.000000 0.000000 10.000000 
R_front_hand02_02 0.000000 0.000000 0.000000 0.000000 0.000000 0.000000 10.000000 
R_front_hand03_02 0.000000 0.000000 0.000000 0.000000 0.000000 0.000000 10.000000 
null_rope01_connect 0.000000 0.000000 0.000000 0.000000 0.000000 0.000000 10.000000 
Rope1_Seg01 0.000000 0.000000 0.000000 0.000000 0.000000 0.000000 10.000000 
Rope1_Seg02 0.000000 0.000000 0.000000 0.000000 0.000000 0.000000 10.000000 
Rope1_Seg03 0.000000 0.000000 0.000000 0.000000 0.000000 0.000000 10.000000 
Rope1_Seg04 0.000000 0.000000 0.000000 0.000000 0.000000 0.000000 10.000000 
Rope1_Seg05 0.000000 0.000000 0.000000 0.000000 0.000000 0.000000 10.000000 
Rope1_Seg06 0.000000 0.000000 0.000000 0.000000 0.000000 0.000000 10.000000 
Rope1_Seg07 0.000000 0.000000 0.000000 0.000000 0.000000 0.000000 10.000000 
Rope1_Seg09 0.000000 0.000000 0.000000 0.000000 0.000000 0.000000 10.000000 
L_mid_hand01 0.000000 0.000000 0.000000 0.000000 0.000000 0.000000 10.000000 
L_mid_hand02 0.000000 0.000000 0.000000 0.000000 0.000000 0.000000 10.000000 
L_mid_hand03 0.000000 0.000000 0.000000 0.000000 0.000000 0.000000 10.000000 
null_rope02_connect 0.000000 0.000000 0.000000 0.000000 0.000000 0.000000 10.000000 
Rope2_Seg01 0.000000 0.000000 0.000000 0.000000 0.000000 0.000000 10.000000 
Rope2_Seg02 0.000000 0.000000 0.000000 0.000000 0.000000 0.000000 10.000000 
Rope2_Seg03 0.000000 0.000000 0.000000 0.000000 0.000000 0.000000 10.000000 
Rope2_Seg04 0.000000 0.000000 0.000000 0.000000 0.000000 0.000000 10.000000 
Rope2_Seg05 0.000000 0.000000 0.000000 0.000000 0.000000 0.000000 10.000000 
Rope2_Seg06 0.000000 0.000000 0.000000 0.000000 0.000000 0.000000 10.000000 
Rope2_Seg07 0.000000 0.000000 0.000000 0.000000 0.000000 0.000000 10.000000 
Rope2_Seg09 0.000000 0.000000 0.000000 0.000000 0.000000 0.000000 10.000000 
R_mid_hand01 0.000000 0.000000 0.000000 0.000000 0.000000 0.000000 10.000000 
R_mid_hand02 0.000000 0.000000 0.000000 0.000000 0.000000 0.000000 10.000000 
R_mid_hand03 0.000000 0.000000 0.000000 0.000000 0.000000 0.000000 10.000000 
spine02 0.000000 0.000000 0.000000 0.000000 0.000000 0.000000 10.000000 
spine03 0.000000 0.000000 0.000000 0.000000 0.000000 0.000000 10.000000 
pelvis 0.000000 0.000000 0.000000 0.000000 0.000000 0.000000 10.000000 
null_rope03_connect 0.000000 0.000000 0.000000 0.000000 0.000000 0.000000 10.000000 
null_rope04_connect 0.000000 0.000000 0.000000 0.000000 0.000000 0.000000 10.000000 
Rope3_Seg01 0.000000 0.000000 0.000000 0.000000 0.000000 0.000000 10.000000 
Rope3_Seg02 0.000000 0.000000 0.000000 0.000000 0.000000 0.000000 10.000000 
Rope3_Seg03 0.000000 0.000000 0.000000 0.000000 0.000000 0.000000 10.000000 
Rope3_Seg04 0.000000 0.000000 0.000000 0.000000 0.000000 0.000000 10.000000 
Rope3_Seg05 0.000000 0.000000 0.000000 0.000000 0.000000 0.000000 10.000000 
Rope3_Seg06 0.000000 0.000000 0.000000 0.000000 0.000000 0.000000 10.000000 
Rope3_Seg07 0.000000 0.000000 0.000000 0.000000 0.000000 0.000000 10.000000 
Rope3_Seg08 0.000000 0.000000 0.000000 0.000000 0.000000 0.000000 10.000000 
Rope3_Seg09 0.000000 0.000000 0.000000 0.000000 0.000000 0.000000 10.000000 
R_rear_hand01 0.000000 0.000000 0.000000 0.000000 0.000000 0.000000 10.000000 
R_rear_hand02 0.000000 0.000000 0.000000 0.000000 0.000000 0.000000 10.000000 
R_rear_hand03 0.000000 0.000000 0.000000 0.000000 0.000000 0.000000 10.000000 
Rope4_Seg01 0.000000 0.000000 0.000000 0.000000 0.000000 0.000000 10.000000 
Rope4_Seg02 0.000000 0.000000 0.000000 0.000000 0.000000 0.000000 10.000000 
Rope4_Seg03 0.000000 0.000000 0.000000 0.000000 0.000000 0.000000 10.000000 
Rope4_Seg04 0.000000 0.000000 0.000000 0.000000 0.000000 0.000000 10.000000 
Rope4_Seg05 0.000000 0.000000 0.000000 0.000000 0.000000 0.000000 10.000000 
Rope4_Seg06 0.000000 0.000000 0.000000 0.000000 0.000000 0.000000 10.000000 
Rope4_Seg07 0.000000 0.000000 0.000000 0.000000 0.000000 0.000000 10.000000 
Rope4_Seg08 0.000000 0.000000 0.000000 0.000000 0.000000 0.000000 10.000000 
Rope4_Seg09 0.000000 0.000000 0.000000 0.000000 0.000000 0.000000 10.000000 
L_rear_hand01 0.000000 0.000000 0.000000 0.000000 0.000000 0.000000 10.000000 
L_rear_hand02 0.000000 0.000000 0.000000 0.000000 0.000000 0.000000 10.000000 
L_rear_hand03 0.000000 0.000000 0.000000 0.000000 0.000000 0.000000 10.000000 
#Beginning of Data. Separated by tabs
#Fr	Tx	Ty	Tz	Rx	Ry	Rz	SF
[MASTER]
20 0.000003 0.000032 4160.776855 0.001660 0.001660 0.001660 4160.776367
21 0.000003 0.000026 4373.728516 0.001660 0.001660 0.001660 4373.729004
[root]
20 -16.502302 -13.705722 1460.442993 -73.073151 -10.429665 -97.737877 1460.600586
21 -16.502302 -14.917063 1461.470337 -79.630386 -12.063210 -95.357300 1461.639771
[chest]
20 -84.512650 -34.090519 0.000000 2.960639 -2.439530 149.440475 91.129311
21 -84.512650 -34.090519 0.000000 4.127123 -4.238853 151.283051 91.129311
[L_mid_tent01]
20 27.299074 22.179041 -249.918686 2.095420 -2.463924 78.687622 252.381653
21 27.299072 22.179037 -249.918686 2.251209 0.833460 78.917908 252.381653
[R_mid_tent01]
20 23.228794 24.509907 226.238495 165.777695 -0.481405 72.672539 228.744751
21 23.228794 24.509907 226.238495 165.917282 -3.407723 73.366425 228.744751
[spine01]
20 -0.361383 -0.195265 0.000000 0.002062 0.001122 32.879829 0.410763
21 -0.361383 -0.195265 0.000000 0.002062 0.001122 32.879829 0.410763
[Bip01_Neck]
20 165.484543 71.581718 0.000119 176.643677 -1.657967 43.431911 180.302734
21 165.484543 71.581718 0.000119 176.643677 -1.657967 43.431911 180.302734
[L_humerus]
20 -13.983130 -135.272980 -120.471481 149.774063 49.308388 -75.780121 181.680161
21 -13.983130 -135.272980 -120.471481 143.569656 57.041790 -82.719849 181.680161
[R_humerus]
20 -13.983309 -135.273102 125.287651 -174.695877 -7.494728 -92.230553 184.909012
21 -13.983309 -135.273102 125.287651 -174.079010 -7.936927 -93.862900 184.909012
[weapon_bone]
20 235.964890 -300.705902 0.000000 0.000000 -89.951546 -128.212341 382.234833
21 235.964890 -300.705902 0.000000 0.000000 -89.951546 -128.212341 382.234833
[Bip01_Head]
20 213.598816 185.285324 17.334429 31.775816 0.844811 -43.902695 283.294189
21 213.549561 185.422287 15.563900 31.850647 0.491897 -43.899708 283.243835
[eye_left_bone]
20 -24.626970 125.451866 -64.772606 0.000000 -90.000000 -99.840431 143.318359
21 -24.626970 125.451866 -64.772606 0.000000 -90.000000 -99.840431 143.318359
[eye_right_bone]
20 -24.626970 125.451866 64.327362 0.000000 -89.965736 80.156380 143.117676
21 -24.626970 125.451866 64.327362 0.000000 -89.965736 80.156380 143.117676
[L_forearm]
20 322.776093 0.000000 -0.000119 0.000119 -0.002344 -95.807457 322.776093
21 322.776093 0.000000 -0.000119 0.000119 -0.002344 -95.807457 322.776093
[L_front_hand]
20 241.149185 -0.042021 -3.300071 -178.667953 -1.835447 -27.422342 241.171753
21 241.149185 -0.042021 -3.300071 -178.667953 -1.835447 -27.422350 241.171753
[L_weapon_bone]
20 156.183838 0.000000 0.000000 0.000014 0.000007 0.000001 156.183838
21 156.183838 0.000000 0.000000 0.000014 0.000007 0.000001 156.183838
[L_front_hand01_01]
20 86.095154 20.947098 -0.655860 -0.366594 -0.477154 75.385574 88.609184
21 86.095154 20.947098 -0.655860 -0.366594 -0.477154 75.385574 88.609184
[L_front_hand02_01]
20 86.935165 -11.437475 24.513514 154.399796 -59.883835 -61.369587 91.046425
21 86.935165 -11.437475 24.513514 154.399796 -59.883835 -61.369587 91.046425
[L_front_hand03_01]
20 86.637497 -14.123976 -20.424902 -153.913849 58.118122 -62.702866 90.126129
21 86.637497 -14.123976 -20.424902 -153.913849 58.118122 -62.702866 90.126129
[L_front_hand01_02]
20 71.020905 -0.000179 0.000030 0.000334 -0.002323 -106.379684 71.020905
21 71.020905 -0.000179 0.000030 0.000334 -0.002323 -106.379684 71.020905
[L_front_hand02_02]
20 71.020927 -0.000119 0.000060 0.000334 -0.002323 -106.379684 71.020927
21 71.020927 -0.000119 0.000060 0.000334 -0.002323 -106.379684 71.020927
[L_front_hand03_02]
20 71.020905 -0.000060 0.000060 0.000334 -0.002323 -106.379684 71.020905
21 71.020905 -0.000060 0.000060 0.000334 -0.002323 -106.379684 71.020905
[R_forearm]
20 322.776428 -0.000060 0.000030 0.209504 0.012586 -94.339050 322.776428
21 322.776428 -0.000060 0.000030 0.209504 0.012586 -94.339050 322.776428
[R_front_hand]
20 238.847015 -0.006795 2.210259 -2.635298 -10.645461 -26.312506 238.857239
21 238.847015 -0.006795 2.210259 -2.635298 -10.645461 -26.312506 238.857239
[R_weapon_bone]
20 155.664093 0.002503 -0.000030 0.003487 0.001180 -90.988930 155.664078
21 155.664093 0.002503 -0.000030 0.003487 0.001180 -90.988930 155.664078
[R_front_hand01_01]
20 87.624611 14.231146 22.918642 -154.633499 -59.950619 61.746044 91.683487
21 87.624611 14.231146 22.918642 -154.633499 -59.950619 61.746044 91.683487
[R_front_hand02_01]
20 89.356956 14.367283 -19.491137 154.602661 58.302849 63.744389 92.579636
21 89.356956 14.367283 -19.491137 154.602661 58.302849 63.744389 92.579636
[R_front_hand03_01]
20 87.286232 -22.307278 -0.143439 0.162155 -0.423168 -75.767921 90.091743
21 87.286232 -22.307278 -0.143439 0.162155 -0.423168 -75.767921 90.091743
[R_front_hand01_02]
20 71.020905 0.000060 0.000119 0.002323 -0.000334 106.381714 71.020905
21 71.020905 0.000060 0.000119 0.002323 -0.000334 106.381714 71.020905
[R_front_hand02_02]
20 71.020844 -0.000030 -0.000119 0.002323 -0.000334 106.381714 71.020836
21 71.020844 -0.000030 -0.000119 0.002323 -0.000334 106.381714 71.020836
[R_front_hand03_02]
20 71.020905 0.000000 0.000030 0.002323 -0.000334 106.381714 71.020905
21 71.020905 0.000000 0.000030 0.002323 -0.000334 106.381714 71.020905
[null_rope01_connect]
20 328.732483 0.000000 -0.000238 -15.382797 -69.528076 38.186604 328.732483
21 328.732483 0.000000 -0.000238 -28.364403 -78.329445 51.797794 328.732483
[Rope1_Seg01]
20 0.000022 -0.000055 0.000264 -10.810806 32.791473 169.556992 0.000270
21 0.000021 -0.000055 0.000277 -9.101657 25.784035 173.798325 0.000284
[Rope1_Seg02]
20 139.999863 -0.000179 0.000000 -0.321542 6.277856 -4.896287 139.999863
21 139.999863 -0.000179 0.000000 -0.159565 5.987398 -4.975546 139.999863
[Rope1_Seg03]
20 139.999924 0.000060 -0.000060 -1.334566 10.591984 -8.329947 139.999924
21 139.999924 0.000060 -0.000060 -0.976977 10.278470 -8.650297 139.999924
[Rope1_Seg04]
20 139.999924 -0.000060 -0.000119 -5.604021 18.353148 -13.468589 139.999924
21 139.999924 -0.000060 -0.000119 -4.993330 19.184904 -14.783717 139.999924
[Rope1_Seg05]
20 139.999832 0.000119 -0.000060 -14.310755 20.120108 -13.030946 139.999832
21 139.999832 0.000119 -0.000060 -11.897170 20.958750 -15.416446 139.999832
[Rope1_Seg06]
20 139.999954 0.000119 -0.000060 -62.008938 20.558519 -12.409183 139.999954
21 139.999954 0.000119 -0.000060 -22.290167 17.121506 -16.319387 139.999954
[Rope1_Seg07]
20 139.999985 0.000060 0.000000 -82.678246 21.444893 11.053599 139.999985
21 139.999985 0.000060 0.000000 -151.390549 19.127970 -10.200965 139.999985
[Rope1_Seg09]
20 121.602913 0.000119 -0.000089 -89.793175 -1.359789 0.847147 121.602913
21 121.602913 0.000119 -0.000089 -89.793175 -1.359789 0.847147 121.602913
[L_mid_hand01]
20 103.859421 1.038730 8.195221 130.544373 -67.584534 -38.866943 104.187431
21 103.859421 1.038730 8.195221 130.544373 -67.584534 -38.866943 104.187431
[L_mid_hand02]
20 105.572853 -4.139662 -10.864139 -168.923172 43.409309 -73.498886 106.211075
21 105.572853 -4.139662 -10.864139 -168.923172 43.409309 -73.498886 106.211075
[L_mid_hand03]
20 104.641464 17.579376 -3.913581 -6.012627 17.808174 74.893669 106.179977
21 104.641464 17.579376 -3.913581 -6.012627 17.808174 74.893669 106.179977
[null_rope02_connect]
20 328.732849 0.000179 -0.000119 -140.470108 77.026627 8.990927 328.732849
21 328.732849 0.000179 -0.000119 -119.126793 77.622734 30.151730 328.732849
[Rope2_Seg01]
20 -0.000023 0.000103 0.000000 90.005447 -0.990633 4.462449 0.000106
21 -0.000028 0.000103 0.000000 87.786736 2.948524 6.271185 0.000106
[Rope2_Seg02]
20 139.999741 -0.000060 -0.000119 -2.559876 1.674493 -4.227172 139.999756
21 139.999741 -0.000060 -0.000119 -1.939917 1.602700 -3.652144 139.999756
[Rope2_Seg03]
20 140.000107 0.000030 0.000000 -3.551626 3.135687 -7.009848 140.000107
21 140.000107 0.000030 0.000000 -2.736645 2.884643 -6.033089 140.000107
[Rope2_Seg04]
20 139.999802 0.000000 -0.000060 -5.199080 7.156950 -13.947331 139.999802
21 139.999802 0.000000 -0.000060 -4.203063 6.464527 -12.208632 139.999802
[Rope2_Seg05]
20 139.999985 -0.000060 0.000119 -7.656836 20.388918 -39.125320 139.999985
21 139.999985 -0.000060 0.000119 -7.215227 20.101524 -38.851124 139.999985
[Rope2_Seg06]
20 139.999893 -0.000030 -0.000119 6.994740 15.089780 -25.565805 139.999893
21 139.999893 -0.000030 -0.000119 10.748614 17.976009 -32.901615 139.999893
[Rope2_Seg07]
20 139.999893 0.000060 -0.000060 1.008534 3.595181 -2.931079 139.999893
21 139.999893 0.000060 -0.000060 4.462547 3.922186 -6.083495 139.999893
[Rope2_Seg09]
20 121.338966 0.000089 -0.000060 33.793236 -1.359788 -0.847141 121.338966
21 121.338966 0.000089 -0.000060 33.793236 -1.359788 -0.847141 121.338966
[R_mid_hand01]
20 104.680779 11.144459 -10.335981 -16.212063 45.237247 70.462852 105.778534
21 104.680779 11.144459 -10.335981 -16.212063 45.237247 70.462852 105.778534
[R_mid_hand02]
20 104.070427 2.443552 8.231699 49.067368 -67.749771 39.286453 104.424065
21 104.070427 2.443552 8.231699 49.067368 -67.749771 39.286453 104.424065
[R_mid_hand03]
20 106.028137 -11.221827 -5.996406 -177.101105 15.551026 -76.585571 106.788818
21 106.028137 -11.221827 -5.996406 -177.101105 15.551026 -76.585571 106.788818
[spine02]
20 129.756927 0.001550 0.000119 -1.023899 -3.926965 6.770993 129.756927
21 129.756927 0.001550 0.000119 -1.023899 -3.926965 6.770993 129.756927
[spine03]
20 78.614037 0.081740 -4.898999 1.040681 4.146420 4.212376 78.766571
21 78.614037 0.081740 -4.898999 1.040681 4.146420 4.212376 78.766571
[pelvis]
20 169.435242 0.051022 0.000000 0.019518 -0.190233 -10.721436 169.435257
21 169.435242 0.051022 0.000000 0.019518 -0.190233 -10.721436 169.435257
[null_rope03_connect]
20 -1.257226 -2.466202 137.391083 -15.054094 -73.060707 83.550568 137.418976
21 -1.257226 -2.466202 137.391083 -17.407001 -79.688133 86.881195 137.418976
[null_rope04_connect]
20 -1.259640 -2.480268 -137.844437 -15.054094 -73.060707 83.550568 137.872513
21 -1.259640 -2.480268 -137.844437 -17.407001 -79.688133 86.881195 137.872513
[Rope3_Seg01]
20 0.000000 0.000000 0.000000 11.365670 -28.656967 -61.911404 0.000000
21 0.000000 0.000000 0.000000 8.184227 -24.872932 -54.548847 0.000000
[Rope3_Seg02]
20 139.999924 -0.000119 0.000060 -0.306159 -1.176597 3.472443 139.999924
21 139.999924 -0.000119 0.000060 -0.491746 -1.628528 1.650848 139.999924
[Rope3_Seg03]
20 139.999924 -0.000119 0.000119 -0.688588 -1.641714 4.979134 139.999924
21 139.999924 -0.000119 0.000119 -0.777401 -2.317713 2.312850 139.999924
[Rope3_Seg04]
20 139.999924 0.000119 0.000000 1.774612 9.850257 10.480002 139.999924
21 139.999924 0.000119 0.000000 1.547187 7.228392 3.509582 139.999924
[Rope3_Seg05]
20 139.999924 -0.000238 0.000060 -11.740936 -28.635397 8.457602 139.999924
21 139.999924 -0.000238 0.000060 -8.723001 -24.963217 7.556218 139.999924
[Rope3_Seg06]
20 139.999893 -0.000119 -0.000060 0.690648 -27.533901 -5.699592 139.999893
21 139.999893 -0.000119 -0.000060 -0.793806 -28.174429 -0.507821 139.999893
[Rope3_Seg07]
20 139.999771 0.000060 -0.000119 1.453081 -7.206733 -0.620124 139.999771
21 139.999771 0.000060 -0.000119 1.221028 -7.106951 0.153796 139.999771
[Rope3_Seg08]
20 139.999985 -0.000060 0.000000 1.161118 -3.533102 -0.212285 139.999985
21 139.999985 -0.000060 0.000000 1.031159 -3.452477 0.153666 139.999985
[Rope3_Seg09]
20 90.185997 -0.000179 -0.000060 89.793228 -1.359877 -0.847183 90.185997
21 90.185997 -0.000179 -0.000060 89.793228 -1.359877 -0.847183 90.185997
[R_rear_hand01]
20 103.366196 -6.073594 -10.757982 -177.714203 24.565960 -73.910950 104.101845
21 103.366196 -6.073594 -10.757982 -177.714203 24.565960 -73.910950 104.101845
[R_rear_hand02]
20 100.509819 12.039542 -7.992327 -12.874829 36.868488 72.167213 101.543350
21 100.509819 12.039542 -7.992327 -12.874829 36.868488 72.167213 101.543350
[R_rear_hand03]
20 101.539970 5.215704 5.435467 71.484581 -71.816628 21.513813 101.819031
21 101.539970 5.215704 5.435467 71.484581 -71.816628 21.513813 101.819031
[Rope4_Seg01]
20 0.000010 0.000022 -0.000087 -84.674957 -20.524128 -137.558426 0.000090
21 0.000010 0.000021 -0.000083 -84.967346 -24.516968 -134.544113 0.000086
[Rope4_Seg02]
20 139.999985 0.000060 0.000119 -3.784124 7.293406 11.457762 139.999985
21 139.999985 0.000060 0.000119 -2.073060 7.615429 9.537187 139.999985
[Rope4_Seg03]
20 139.999924 0.000000 -0.000238 -12.776567 8.424179 18.607128 139.999924
21 139.999924 0.000000 -0.000238 -8.080709 10.402889 16.500261 139.999924
[Rope4_Seg04]
20 139.999985 0.000000 0.000119 -33.947666 -0.103722 26.043739 139.999985
21 139.999985 0.000000 0.000119 -33.961079 5.422832 27.875652 139.999985
[Rope4_Seg05]
20 139.999802 -0.000060 -0.000119 -17.032980 7.226245 13.185025 139.999802
21 139.999802 -0.000060 -0.000119 -15.883718 12.271390 12.308959 139.999802
[Rope4_Seg06]
20 139.999924 0.000000 0.000060 -22.431036 12.427865 10.853187 139.999924
21 139.999924 0.000000 0.000060 -18.188667 15.245435 7.578282 139.999924
[Rope4_Seg07]
20 139.999802 0.000000 0.000000 -41.320992 1.185511 7.119006 139.999802
21 139.999802 0.000000 0.000000 -134.233368 2.994076 5.927927 139.999802
[Rope4_Seg08]
20 139.999924 0.000000 0.000119 -23.667295 -2.254020 3.324752 139.999924
21 139.999924 0.000000 0.000119 -3.679626 -3.485322 -1.163623 139.999924
[Rope4_Seg09]
20 90.185791 0.000060 0.000060 -135.617828 2.228885 0.850567 90.185791
21 90.185791 0.000060 0.000060 -135.617828 2.228885 0.850567 90.185791
[L_rear_hand01]
20 101.696655 -8.392275 -7.654577 -12.874829 -36.868488 107.832764 102.329041
21 101.696655 -8.392275 -7.654577 -12.874829 -36.868488 107.832764 102.329041
[L_rear_hand02]
20 102.726799 -1.568258 5.773216 71.484581 71.816628 158.486160 102.900848
21 102.726799 -1.568258 5.773216 71.484581 71.816628 158.486160 102.900848
[L_rear_hand03]
20 104.552910 9.721220 -10.420293 -177.714203 -24.565960 -106.089035 105.519653
21 104.552910 9.721220 -10.420293 -177.714203 -24.565960 -106.089035 105.519653
